<mxfile host="65bd71144e">
    <diagram id="BchvI7WIYb1rJNrYavdt" name="第1頁">
        <mxGraphModel dx="1608" dy="1232" grid="1" gridSize="10" guides="1" tooltips="1" connect="1" arrows="1" fold="1" page="1" pageScale="1" pageWidth="827" pageHeight="1169" math="0" shadow="0">
            <root>
                <mxCell id="0"/>
                <mxCell id="1" parent="0"/>
                <mxCell id="2" value="" style="html=1;strokeColor=#000000;fontColor=#000000;" vertex="1" parent="1">
                    <mxGeometry x="290" y="40" width="220" height="410" as="geometry"/>
                </mxCell>
                <mxCell id="3" value="提供APP" style="ellipse;whiteSpace=wrap;html=1;strokeColor=#000000;fontColor=#000000;" vertex="1" parent="1">
                    <mxGeometry x="400" y="70" width="100" height="50" as="geometry"/>
                </mxCell>
                <mxCell id="27" style="edgeStyle=none;html=1;exitX=0;exitY=0.5;exitDx=0;exitDy=0;startArrow=none;startFill=0;endArrow=none;endFill=0;strokeColor=#000000;fontColor=#000000;" edge="1" parent="1" source="4">
                    <mxGeometry relative="1" as="geometry">
                        <mxPoint x="210" y="110" as="targetPoint"/>
                    </mxGeometry>
                </mxCell>
                <mxCell id="28" style="edgeStyle=none;html=1;exitX=0;exitY=0.5;exitDx=0;exitDy=0;startArrow=none;startFill=0;endArrow=none;endFill=0;strokeColor=#000000;fontColor=#000000;labelBackgroundColor=#FFFFFF;" edge="1" parent="1" source="4">
                    <mxGeometry relative="1" as="geometry">
                        <mxPoint x="210" y="250" as="targetPoint"/>
                    </mxGeometry>
                </mxCell>
                <mxCell id="4" value="收取信件、包裹" style="ellipse;whiteSpace=wrap;html=1;strokeColor=#000000;fontColor=#000000;" vertex="1" parent="1">
                    <mxGeometry x="300" y="130" width="100" height="50" as="geometry"/>
                </mxCell>
                <mxCell id="21" style="edgeStyle=none;html=1;exitX=1;exitY=0.5;exitDx=0;exitDy=0;entryX=0;entryY=0.3333333333333333;entryDx=0;entryDy=0;entryPerimeter=0;startArrow=none;startFill=0;endArrow=none;endFill=0;strokeColor=#000000;fontColor=#000000;labelBackgroundColor=#FFFFFF;" edge="1" parent="1" source="5" target="16">
                    <mxGeometry relative="1" as="geometry"/>
                </mxCell>
                <mxCell id="22" style="edgeStyle=none;html=1;exitX=1;exitY=0.5;exitDx=0;exitDy=0;entryX=0;entryY=0.3333333333333333;entryDx=0;entryDy=0;entryPerimeter=0;startArrow=none;startFill=0;endArrow=none;endFill=0;strokeColor=#000000;fontColor=#000000;labelBackgroundColor=#FFFFFF;" edge="1" parent="1" source="5" target="17">
                    <mxGeometry relative="1" as="geometry"/>
                </mxCell>
                <mxCell id="5" value="發布公告" style="ellipse;whiteSpace=wrap;html=1;strokeColor=#000000;fontColor=#000000;" vertex="1" parent="1">
                    <mxGeometry x="404" y="130" width="100" height="50" as="geometry"/>
                </mxCell>
                <mxCell id="29" style="edgeStyle=none;html=1;exitX=0;exitY=0.5;exitDx=0;exitDy=0;startArrow=none;startFill=0;endArrow=none;endFill=0;strokeColor=#000000;fontColor=#000000;" edge="1" parent="1" source="8">
                    <mxGeometry relative="1" as="geometry">
                        <mxPoint x="210" y="110" as="targetPoint"/>
                    </mxGeometry>
                </mxCell>
                <mxCell id="8" value="綁定手機" style="ellipse;whiteSpace=wrap;html=1;strokeColor=#000000;fontColor=#000000;" vertex="1" parent="1">
                    <mxGeometry x="350" y="210" width="100" height="50" as="geometry"/>
                </mxCell>
                <mxCell id="26" style="edgeStyle=none;html=1;exitX=0;exitY=0.5;exitDx=0;exitDy=0;startArrow=none;startFill=0;endArrow=none;endFill=0;strokeColor=#000000;fontColor=#000000;labelBackgroundColor=#FFFFFF;" edge="1" parent="1" source="9">
                    <mxGeometry relative="1" as="geometry">
                        <mxPoint x="210" y="110" as="targetPoint"/>
                    </mxGeometry>
                </mxCell>
                <mxCell id="9" value="查看社區公告" style="ellipse;whiteSpace=wrap;html=1;strokeColor=#000000;fontColor=#000000;" vertex="1" parent="1">
                    <mxGeometry x="300" y="280" width="100" height="50" as="geometry"/>
                </mxCell>
                <mxCell id="23" style="edgeStyle=none;html=1;exitX=1;exitY=0.5;exitDx=0;exitDy=0;entryX=0;entryY=0.3333333333333333;entryDx=0;entryDy=0;entryPerimeter=0;startArrow=none;startFill=0;endArrow=none;endFill=0;strokeColor=#000000;fontColor=#000000;labelBackgroundColor=#FFFFFF;" edge="1" parent="1" source="10" target="16">
                    <mxGeometry relative="1" as="geometry"/>
                </mxCell>
                <mxCell id="10" value="編輯公告" style="ellipse;whiteSpace=wrap;html=1;strokeColor=#000000;fontColor=#000000;" vertex="1" parent="1">
                    <mxGeometry x="406" y="280" width="100" height="50" as="geometry"/>
                </mxCell>
                <mxCell id="25" style="edgeStyle=none;html=1;exitX=0;exitY=0.5;exitDx=0;exitDy=0;startArrow=none;startFill=0;endArrow=none;endFill=0;strokeColor=#000000;fontColor=#000000;labelBackgroundColor=#FFFFFF;" edge="1" parent="1" source="11">
                    <mxGeometry relative="1" as="geometry">
                        <mxPoint x="210" y="110" as="targetPoint"/>
                    </mxGeometry>
                </mxCell>
                <mxCell id="11" value="回應社區公告" style="ellipse;whiteSpace=wrap;html=1;strokeColor=#000000;fontColor=#000000;" vertex="1" parent="1">
                    <mxGeometry x="300" y="350" width="100" height="50" as="geometry"/>
                </mxCell>
                <mxCell id="24" style="edgeStyle=none;html=1;exitX=1;exitY=0.5;exitDx=0;exitDy=0;entryX=0;entryY=0.3333333333333333;entryDx=0;entryDy=0;entryPerimeter=0;startArrow=none;startFill=0;endArrow=none;endFill=0;strokeColor=#000000;fontColor=#000000;labelBackgroundColor=#FFFFFF;" edge="1" parent="1" source="13" target="17">
                    <mxGeometry relative="1" as="geometry"/>
                </mxCell>
                <mxCell id="13" value="查看回應" style="ellipse;whiteSpace=wrap;html=1;strokeColor=#000000;fontColor=#000000;" vertex="1" parent="1">
                    <mxGeometry x="406" y="350" width="100" height="50" as="geometry"/>
                </mxCell>
                <mxCell id="14" value="住戶" style="shape=umlActor;verticalLabelPosition=bottom;verticalAlign=top;html=1;strokeColor=#000000;fontColor=#000000;" vertex="1" parent="1">
                    <mxGeometry x="170" y="60" width="30" height="60" as="geometry"/>
                </mxCell>
                <mxCell id="15" value="警衛" style="shape=umlActor;verticalLabelPosition=bottom;verticalAlign=top;html=1;strokeColor=#000000;fontColor=#000000;" vertex="1" parent="1">
                    <mxGeometry x="170" y="220" width="30" height="60" as="geometry"/>
                </mxCell>
                <mxCell id="16" value="主任委員" style="shape=umlActor;verticalLabelPosition=bottom;verticalAlign=top;html=1;strokeColor=#000000;fontColor=#000000;" vertex="1" parent="1">
                    <mxGeometry x="620" y="215" width="30" height="60" as="geometry"/>
                </mxCell>
                <mxCell id="17" value="委員" style="shape=umlActor;verticalLabelPosition=bottom;verticalAlign=top;html=1;strokeColor=#000000;fontColor=#000000;" vertex="1" parent="1">
                    <mxGeometry x="620" y="340" width="30" height="60" as="geometry"/>
                </mxCell>
                <mxCell id="18" value="噗攏貢公司" style="shape=umlActor;verticalLabelPosition=bottom;verticalAlign=top;html=1;strokeColor=#000000;fontColor=#000000;" vertex="1" parent="1">
                    <mxGeometry x="620" y="60" width="30" height="60" as="geometry"/>
                </mxCell>
                <mxCell id="20" value="" style="endArrow=none;endFill=0;html=1;entryX=0;entryY=0.3333333333333333;entryDx=0;entryDy=0;entryPerimeter=0;startArrow=none;startFill=0;strokeColor=#000000;fontColor=#000000;labelBackgroundColor=#FFFFFF;" edge="1" parent="1" target="18">
                    <mxGeometry width="160" relative="1" as="geometry">
                        <mxPoint x="500" y="94.5" as="sourcePoint"/>
                        <mxPoint x="660" y="94.5" as="targetPoint"/>
                    </mxGeometry>
                </mxCell>
                <mxCell id="30" style="edgeStyle=none;html=1;exitX=0;exitY=0.5;exitDx=0;exitDy=0;startArrow=none;startFill=0;endArrow=none;endFill=0;strokeColor=#000000;fontColor=#000000;labelBackgroundColor=#FFFFFF;" edge="1" parent="1">
                    <mxGeometry relative="1" as="geometry">
                        <mxPoint x="210" y="110" as="targetPoint"/>
                        <mxPoint x="300" y="155" as="sourcePoint"/>
                    </mxGeometry>
                </mxCell>
                <mxCell id="31" style="edgeStyle=none;html=1;exitX=0;exitY=0.5;exitDx=0;exitDy=0;startArrow=none;startFill=0;endArrow=none;endFill=0;strokeColor=#000000;fontColor=#000000;labelBackgroundColor=#FFFFFF;" edge="1" parent="1">
                    <mxGeometry relative="1" as="geometry">
                        <mxPoint x="210" y="110" as="targetPoint"/>
                        <mxPoint x="350" y="235" as="sourcePoint"/>
                    </mxGeometry>
                </mxCell>
            </root>
        </mxGraphModel>
    </diagram>
    <diagram id="uUuRMMSiGjhkcVaIoG5B" name="第2頁">
        <mxGraphModel dx="383" dy="293" grid="1" gridSize="10" guides="1" tooltips="1" connect="1" arrows="1" fold="1" page="1" pageScale="1" pageWidth="827" pageHeight="1169" math="0" shadow="0">
            <root>
                <mxCell id="0"/>
                <mxCell id="1" parent="0"/>
                <mxCell id="bXMlcmq-wbNnRB2DaLHC-1" value="user" style="swimlane;fontStyle=0;childLayout=stackLayout;horizontal=1;startSize=26;fillColor=none;horizontalStack=0;resizeParent=1;resizeParentMax=0;resizeLast=0;collapsible=1;marginBottom=0;strokeColor=#000000;fontColor=#000000;labelBackgroundColor=default;" vertex="1" parent="1">
                    <mxGeometry x="140" y="150" width="140" height="104" as="geometry"/>
                </mxCell>
                <mxCell id="bXMlcmq-wbNnRB2DaLHC-2" value="user_Id" style="text;strokeColor=#000000;fillColor=none;align=left;verticalAlign=top;spacingLeft=4;spacingRight=4;overflow=hidden;rotatable=0;points=[[0,0.5],[1,0.5]];portConstraint=eastwest;fontColor=#000000;labelBackgroundColor=default;" vertex="1" parent="bXMlcmq-wbNnRB2DaLHC-1">
                    <mxGeometry y="26" width="140" height="26" as="geometry"/>
                </mxCell>
                <mxCell id="bXMlcmq-wbNnRB2DaLHC-3" value="name" style="text;strokeColor=#000000;fillColor=none;align=left;verticalAlign=top;spacingLeft=4;spacingRight=4;overflow=hidden;rotatable=0;points=[[0,0.5],[1,0.5]];portConstraint=eastwest;fontColor=#000000;labelBackgroundColor=default;" vertex="1" parent="bXMlcmq-wbNnRB2DaLHC-1">
                    <mxGeometry y="52" width="140" height="26" as="geometry"/>
                </mxCell>
                <mxCell id="bXMlcmq-wbNnRB2DaLHC-4" value="phone_number" style="text;strokeColor=#000000;fillColor=none;align=left;verticalAlign=top;spacingLeft=4;spacingRight=4;overflow=hidden;rotatable=0;points=[[0,0.5],[1,0.5]];portConstraint=eastwest;fontColor=#000000;labelBackgroundColor=default;" vertex="1" parent="bXMlcmq-wbNnRB2DaLHC-1">
                    <mxGeometry y="78" width="140" height="26" as="geometry"/>
                </mxCell>
                <mxCell id="bXMlcmq-wbNnRB2DaLHC-5" value="annoucement" style="swimlane;fontStyle=0;childLayout=stackLayout;horizontal=1;startSize=26;fillColor=none;horizontalStack=0;resizeParent=1;resizeParentMax=0;resizeLast=0;collapsible=1;marginBottom=0;strokeColor=#000000;fontColor=#000000;labelBackgroundColor=default;" vertex="1" parent="1">
                    <mxGeometry x="440" y="150" width="140" height="104" as="geometry"/>
                </mxCell>
                <mxCell id="bXMlcmq-wbNnRB2DaLHC-6" value="announcement" style="text;strokeColor=#000000;fillColor=none;align=left;verticalAlign=top;spacingLeft=4;spacingRight=4;overflow=hidden;rotatable=0;points=[[0,0.5],[1,0.5]];portConstraint=eastwest;fontColor=#000000;labelBackgroundColor=default;" vertex="1" parent="bXMlcmq-wbNnRB2DaLHC-5">
                    <mxGeometry y="26" width="140" height="26" as="geometry"/>
                </mxCell>
                <mxCell id="bXMlcmq-wbNnRB2DaLHC-7" value="title" style="text;strokeColor=#000000;fillColor=none;align=left;verticalAlign=top;spacingLeft=4;spacingRight=4;overflow=hidden;rotatable=0;points=[[0,0.5],[1,0.5]];portConstraint=eastwest;fontColor=#000000;labelBackgroundColor=default;" vertex="1" parent="bXMlcmq-wbNnRB2DaLHC-5">
                    <mxGeometry y="52" width="140" height="26" as="geometry"/>
                </mxCell>
                <mxCell id="bXMlcmq-wbNnRB2DaLHC-8" value="content" style="text;strokeColor=#000000;fillColor=none;align=left;verticalAlign=top;spacingLeft=4;spacingRight=4;overflow=hidden;rotatable=0;points=[[0,0.5],[1,0.5]];portConstraint=eastwest;fontColor=#000000;labelBackgroundColor=default;" vertex="1" parent="bXMlcmq-wbNnRB2DaLHC-5">
                    <mxGeometry y="78" width="140" height="26" as="geometry"/>
                </mxCell>
                <mxCell id="bXMlcmq-wbNnRB2DaLHC-9" value="guard" style="swimlane;fontStyle=0;childLayout=stackLayout;horizontal=1;startSize=26;fillColor=none;horizontalStack=0;resizeParent=1;resizeParentMax=0;resizeLast=0;collapsible=1;marginBottom=0;strokeColor=#000000;fontColor=#000000;labelBackgroundColor=default;" vertex="1" parent="1">
                    <mxGeometry x="140" y="360" width="140" height="78" as="geometry"/>
                </mxCell>
                <mxCell id="bXMlcmq-wbNnRB2DaLHC-10" value="guard_Id" style="text;strokeColor=none;fillColor=none;align=left;verticalAlign=top;spacingLeft=4;spacingRight=4;overflow=hidden;rotatable=0;points=[[0,0.5],[1,0.5]];portConstraint=eastwest;fontColor=#000000;labelBackgroundColor=default;" vertex="1" parent="bXMlcmq-wbNnRB2DaLHC-9">
                    <mxGeometry y="26" width="140" height="26" as="geometry"/>
                </mxCell>
                <mxCell id="bXMlcmq-wbNnRB2DaLHC-11" value="name" style="text;strokeColor=none;fillColor=none;align=left;verticalAlign=top;spacingLeft=4;spacingRight=4;overflow=hidden;rotatable=0;points=[[0,0.5],[1,0.5]];portConstraint=eastwest;fontColor=#000000;labelBackgroundColor=default;" vertex="1" parent="bXMlcmq-wbNnRB2DaLHC-9">
                    <mxGeometry y="52" width="140" height="26" as="geometry"/>
                </mxCell>
                <mxCell id="bXMlcmq-wbNnRB2DaLHC-17" value="parcel" style="swimlane;fontStyle=0;childLayout=stackLayout;horizontal=1;startSize=26;fillColor=none;horizontalStack=0;resizeParent=1;resizeParentMax=0;resizeLast=0;collapsible=1;marginBottom=0;strokeColor=#000000;fontColor=#000000;labelBackgroundColor=default;" vertex="1" parent="1">
                    <mxGeometry x="450" y="360" width="140" height="130" as="geometry"/>
                </mxCell>
                <mxCell id="bXMlcmq-wbNnRB2DaLHC-18" value="parcel_Id" style="text;strokeColor=none;fillColor=none;align=left;verticalAlign=top;spacingLeft=4;spacingRight=4;overflow=hidden;rotatable=0;points=[[0,0.5],[1,0.5]];portConstraint=eastwest;fontColor=#000000;labelBackgroundColor=default;" vertex="1" parent="bXMlcmq-wbNnRB2DaLHC-17">
                    <mxGeometry y="26" width="140" height="26" as="geometry"/>
                </mxCell>
                <mxCell id="bXMlcmq-wbNnRB2DaLHC-19" value="recipient" style="text;strokeColor=none;fillColor=none;align=left;verticalAlign=top;spacingLeft=4;spacingRight=4;overflow=hidden;rotatable=0;points=[[0,0.5],[1,0.5]];portConstraint=eastwest;fontColor=#000000;labelBackgroundColor=default;" vertex="1" parent="bXMlcmq-wbNnRB2DaLHC-17">
                    <mxGeometry y="52" width="140" height="26" as="geometry"/>
                </mxCell>
                <mxCell id="bXMlcmq-wbNnRB2DaLHC-20" value="arrival_time" style="text;strokeColor=none;fillColor=none;align=left;verticalAlign=top;spacingLeft=4;spacingRight=4;overflow=hidden;rotatable=0;points=[[0,0.5],[1,0.5]];portConstraint=eastwest;fontColor=#000000;labelBackgroundColor=default;" vertex="1" parent="bXMlcmq-wbNnRB2DaLHC-17">
                    <mxGeometry y="78" width="140" height="26" as="geometry"/>
                </mxCell>
                <mxCell id="bXMlcmq-wbNnRB2DaLHC-26" value="satus" style="text;strokeColor=none;fillColor=none;align=left;verticalAlign=top;spacingLeft=4;spacingRight=4;overflow=hidden;rotatable=0;points=[[0,0.5],[1,0.5]];portConstraint=eastwest;fontColor=#000000;labelBackgroundColor=default;" vertex="1" parent="bXMlcmq-wbNnRB2DaLHC-17">
                    <mxGeometry y="104" width="140" height="26" as="geometry"/>
                </mxCell>
                <mxCell id="bXMlcmq-wbNnRB2DaLHC-28" value="" style="endArrow=none;endFill=0;endSize=12;html=1;labelBackgroundColor=default;strokeColor=#000000;fontColor=#000000;" edge="1" parent="1">
                    <mxGeometry width="160" relative="1" as="geometry">
                        <mxPoint x="280" y="201.5" as="sourcePoint"/>
                        <mxPoint x="440" y="201.5" as="targetPoint"/>
                    </mxGeometry>
                </mxCell>
                <mxCell id="bXMlcmq-wbNnRB2DaLHC-29" value="**" style="edgeLabel;html=1;align=center;verticalAlign=bottom;resizable=0;points=[];fontColor=#000000;labelBackgroundColor=#FFFFFF;fontSize=12;fontStyle=0;fontFamily=Times New Roman;" vertex="1" connectable="0" parent="bXMlcmq-wbNnRB2DaLHC-28">
                    <mxGeometry x="-0.835" y="2" relative="1" as="geometry">
                        <mxPoint x="-3" y="1" as="offset"/>
                    </mxGeometry>
                </mxCell>
                <mxCell id="bXMlcmq-wbNnRB2DaLHC-31" value="**" style="edgeLabel;html=1;align=center;verticalAlign=bottom;resizable=0;points=[];fontColor=#000000;labelBackgroundColor=#FFFFFF;fontSize=12;fontFamily=Times New Roman;" vertex="1" connectable="0" parent="bXMlcmq-wbNnRB2DaLHC-28">
                    <mxGeometry x="0.9375" relative="1" as="geometry">
                        <mxPoint as="offset"/>
                    </mxGeometry>
                </mxCell>
                <mxCell id="bXMlcmq-wbNnRB2DaLHC-32" value="" style="endArrow=none;endFill=0;endSize=12;html=1;labelBackgroundColor=default;strokeColor=#000000;fontColor=#000000;entryX=0;entryY=0.5;entryDx=0;entryDy=0;" edge="1" parent="1" target="bXMlcmq-wbNnRB2DaLHC-18">
                    <mxGeometry width="160" relative="1" as="geometry">
                        <mxPoint x="280" y="398.71000000000004" as="sourcePoint"/>
                        <mxPoint x="440" y="398.71000000000004" as="targetPoint"/>
                    </mxGeometry>
                </mxCell>
                <mxCell id="bXMlcmq-wbNnRB2DaLHC-33" value="1" style="edgeLabel;html=1;align=center;verticalAlign=bottom;resizable=0;points=[];fontColor=#000000;labelBackgroundColor=default;" vertex="1" connectable="0" parent="bXMlcmq-wbNnRB2DaLHC-32">
                    <mxGeometry x="-0.835" y="2" relative="1" as="geometry">
                        <mxPoint x="-3" y="1" as="offset"/>
                    </mxGeometry>
                </mxCell>
                <mxCell id="bXMlcmq-wbNnRB2DaLHC-34" value="0...**" style="edgeLabel;html=1;align=center;verticalAlign=bottom;resizable=0;points=[];fontColor=#000000;labelBackgroundColor=#FFFFFF;fontSize=12;fontFamily=Times New Roman;" vertex="1" connectable="0" parent="bXMlcmq-wbNnRB2DaLHC-32">
                    <mxGeometry x="0.9375" relative="1" as="geometry">
                        <mxPoint x="-8" as="offset"/>
                    </mxGeometry>
                </mxCell>
                <mxCell id="bXMlcmq-wbNnRB2DaLHC-35" value="" style="endArrow=none;endFill=0;endSize=12;html=1;labelBackgroundColor=default;strokeColor=#000000;fontColor=#000000;entryX=0.429;entryY=0;entryDx=0;entryDy=0;entryPerimeter=0;exitX=0.426;exitY=0.971;exitDx=0;exitDy=0;exitPerimeter=0;" edge="1" parent="1" source="bXMlcmq-wbNnRB2DaLHC-4" target="bXMlcmq-wbNnRB2DaLHC-9">
                    <mxGeometry width="160" relative="1" as="geometry">
                        <mxPoint x="200" y="260" as="sourcePoint"/>
                        <mxPoint x="370" y="254.29" as="targetPoint"/>
                    </mxGeometry>
                </mxCell>
                <mxCell id="bXMlcmq-wbNnRB2DaLHC-36" value="1" style="edgeLabel;html=1;align=center;verticalAlign=bottom;resizable=0;points=[];fontColor=#000000;labelBackgroundColor=default;" vertex="1" connectable="0" parent="bXMlcmq-wbNnRB2DaLHC-35">
                    <mxGeometry x="-0.835" y="2" relative="1" as="geometry">
                        <mxPoint x="4" y="11" as="offset"/>
                    </mxGeometry>
                </mxCell>
                <mxCell id="bXMlcmq-wbNnRB2DaLHC-37" value="0...**" style="edgeLabel;html=1;align=center;verticalAlign=bottom;resizable=0;points=[];fontColor=#000000;labelBackgroundColor=#FFFFFF;fontSize=12;fontFamily=Times New Roman;" vertex="1" connectable="0" parent="bXMlcmq-wbNnRB2DaLHC-35">
                    <mxGeometry x="0.9375" relative="1" as="geometry">
                        <mxPoint x="13" y="1" as="offset"/>
                    </mxGeometry>
                </mxCell>
                <mxCell id="bXMlcmq-wbNnRB2DaLHC-38" value="" style="endArrow=none;endFill=0;endSize=12;html=1;labelBackgroundColor=default;strokeColor=#000000;fontColor=#000000;entryX=0.001;entryY=1.007;entryDx=0;entryDy=0;entryPerimeter=0;" edge="1" parent="1" target="bXMlcmq-wbNnRB2DaLHC-8">
                    <mxGeometry width="160" relative="1" as="geometry">
                        <mxPoint x="280" y="360.00000000000006" as="sourcePoint"/>
                        <mxPoint x="450" y="360.29" as="targetPoint"/>
                    </mxGeometry>
                </mxCell>
                <mxCell id="bXMlcmq-wbNnRB2DaLHC-39" value="1" style="edgeLabel;html=1;align=center;verticalAlign=bottom;resizable=0;points=[];fontColor=#000000;labelBackgroundColor=default;" vertex="1" connectable="0" parent="bXMlcmq-wbNnRB2DaLHC-38">
                    <mxGeometry x="-0.835" y="2" relative="1" as="geometry">
                        <mxPoint x="138" y="-90" as="offset"/>
                    </mxGeometry>
                </mxCell>
                <mxCell id="bXMlcmq-wbNnRB2DaLHC-40" value="0...**" style="edgeLabel;html=1;align=center;verticalAlign=bottom;resizable=0;points=[];fontColor=#000000;rotation=-30;labelBackgroundColor=#FFFFFF;fontSize=12;fontFamily=Times New Roman;" vertex="1" connectable="0" parent="bXMlcmq-wbNnRB2DaLHC-38">
                    <mxGeometry x="0.9375" relative="1" as="geometry">
                        <mxPoint x="-144" y="95" as="offset"/>
                    </mxGeometry>
                </mxCell>
            </root>
        </mxGraphModel>
    </diagram>
</mxfile>